<svg width="42" height="33" viewBox="0 0 42 33" fill="none" xmlns="http://www.w3.org/2000/svg">
<g clip-path="url(#clip0_1_38)">
<path d="M10.3833 1.54745C10.7917 2.61088 10.1281 3.7566 8.91042 4.11108L7 4.66178V12.3147C7 15.6695 10.1354 18.3914 14 18.3914C17.8646 18.3914 21 15.6695 21 12.3147V4.66178L19.0969 4.11108C17.8719 3.7566 17.2156 2.61088 17.624 1.54745C18.0323 0.484024 19.3521 -0.0856695 20.5771 0.268807L22.4802 0.819511C24.3833 1.37021 25.6667 2.91472 25.6667 4.66178V12.3147C25.6667 17.2014 21.6854 21.2779 16.3844 22.2337C16.8437 25.7721 20.3 28.5193 24.5 28.5193C29.0135 28.5193 32.6667 25.348 32.6667 21.4298V16.9545C30.6031 16.1759 29.1667 14.3909 29.1667 12.3147C29.1667 9.51684 31.7771 7.25072 35 7.25072C38.2229 7.25072 40.8333 9.51684 40.8333 12.3147C40.8333 14.3909 39.3969 16.1759 37.3333 16.9545V21.4298C37.3333 27.5825 31.5875 32.5705 24.5 32.5705C17.726 32.5705 12.1844 28.0192 11.7031 22.2463C6.35833 21.3158 2.33333 17.2267 2.33333 12.3147V4.66178C2.33333 2.92105 3.61667 1.37021 5.52708 0.819511L7.43021 0.268807C8.65521 -0.0856695 9.975 0.490354 10.3833 1.54745ZM35 14.3402C35.6188 14.3402 36.2123 14.1268 36.6499 13.747C37.0875 13.3671 37.3333 12.8519 37.3333 12.3147C37.3333 11.7775 37.0875 11.2622 36.6499 10.8824C36.2123 10.5025 35.6188 10.2891 35 10.2891C34.3812 10.2891 33.7877 10.5025 33.3501 10.8824C32.9125 11.2622 32.6667 11.7775 32.6667 12.3147C32.6667 12.8519 32.9125 13.3671 33.3501 13.747C33.7877 14.1268 34.3812 14.3402 35 14.3402Z" fill="#144849"/>
</g>
<defs>
<clipPath id="clip0_1_38">
<rect width="42" height="32.4093" fill="white" transform="translate(0 0.161133)"/>
</clipPath>
</defs>
</svg>
