<svg width="38" height="34" viewBox="0 0 38 34" fill="none" xmlns="http://www.w3.org/2000/svg">
<g clip-path="url(#clip0_1_35)">
<path d="M27.3422 1.49522L23.2082 5.12279L32.5004 13.2621L36.6344 9.64099C38.2598 8.21727 38.2598 5.91591 36.6344 4.49219L33.2203 1.49522C31.5949 0.0714987 28.9676 0.0714987 27.3422 1.49522ZM21.375 6.45549L20.6922 6.63752L9.99726 9.44596C8.52031 9.83602 7.34765 10.8242 6.85781 12.1114L0.28203 29.2871C-1.41561e-06 30.0217 0.207811 30.8408 0.823827 31.3934L12.2238 21.4143C12.0012 21.0048 11.875 20.5497 11.875 20.0686C11.875 18.3458 13.4707 16.9481 15.4375 16.9481C17.4043 16.9481 19 18.3458 19 20.0686C19 21.7914 17.4043 23.1891 15.4375 23.1891C14.8883 23.1891 14.3687 23.0786 13.9012 22.8836L2.50117 32.8691C3.13945 33.4087 4.06719 33.5972 4.90586 33.3437L24.5219 27.5838C25.984 27.1547 27.1195 26.1276 27.5648 24.8339L30.7711 15.4659L30.9715 14.8678L21.375 6.45549Z" fill="#144849"/>
</g>
<defs>
<clipPath id="clip0_1_35">
<rect width="38" height="33.2852" fill="white" transform="translate(0 0.305542)"/>
</clipPath>
</defs>
</svg>
