<?xml version="1.0" encoding="UTF-8" standalone="no"?><!DOCTYPE svg PUBLIC "-//W3C//DTD SVG 1.1//EN" "http://www.w3.org/Graphics/SVG/1.1/DTD/svg11.dtd"><svg width="100%" height="100%" viewBox="0 0 669 669" version="1.1" xmlns="http://www.w3.org/2000/svg" xmlns:xlink="http://www.w3.org/1999/xlink" xml:space="preserve" xmlns:serif="http://www.serif.com/" style="fill-rule:evenodd;clip-rule:evenodd;stroke-linejoin:round;stroke-miterlimit:2;"><path d="M668.335,167.084c-0,-92.216 -74.868,-167.084 -167.084,-167.084l-334.167,0c-92.216,0 -167.084,74.868 -167.084,167.084l-0,334.167c-0,92.216 74.868,167.084 167.084,167.084l334.167,-0c92.216,-0 167.084,-74.868 167.084,-167.084l-0,-334.167Z" style="fill:none;"/><clipPath id="_clip1"><path d="M668.335,167.084c-0,-92.216 -74.868,-167.084 -167.084,-167.084l-334.167,0c-92.216,0 -167.084,74.868 -167.084,167.084l-0,334.167c-0,92.216 74.868,167.084 167.084,167.084l334.167,-0c92.216,-0 167.084,-74.868 167.084,-167.084l-0,-334.167Z"/></clipPath><g clip-path="url(#_clip1)"><g><path d="M590.37,77.959c-5.439,-5.439 -13.247,-8.199 -23.22,-8.199c-65.634,0 -271.72,127.171 -351.591,207.049c-19.588,19.581 -35.66,39.171 -47.8,58.218c-2.413,3.801 -3.013,8.485 -1.618,12.766c1.395,4.281 4.635,7.718 8.827,9.367l13.091,5.156l-34.525,13.59c-4.52,1.766 -7.896,5.606 -9.095,10.3c-6.733,26.363 -4.26,51.412 6.717,74.085l22.989,-22.984c-3.596,-11.381 -4.332,-23.421 -2.066,-36.283l62.696,-24.677c0.288,-0.106 0.5,-0.323 0.768,-0.44l7.188,-7.19c0.951,-1.983 1.611,-4.114 1.611,-6.401c-0,-6.195 -3.793,-11.764 -9.567,-14.032l-31.068,-12.225c9.29,-12.44 20.395,-25.137 33.182,-37.922c77.797,-77.798 278.413,-198.211 330.257,-198.211c0.423,-0 0.807,0.009 1.142,0.029c0.212,5.362 -1.366,22.191 -20.347,63.943l-56.335,43.058c-3.728,2.847 -5.918,7.275 -5.918,11.979c0,4.694 2.186,9.132 5.918,11.98l15.141,11.577c-43.616,75.167 -97.593,149.989 -136.553,188.953c-53.434,53.433 -100.119,74.812 -139.051,62.608l-23.073,23.073c14.058,6.813 28.955,10.577 44.767,10.577c42.301,-0 88.97,-25.219 138.683,-74.932c43.332,-43.334 101.433,-124.508 148.018,-206.804c3.7,-6.557 2.01,-14.847 -3.968,-19.411l-9.966,-7.619l43.643,-33.357c1.946,-1.482 3.509,-3.426 4.528,-5.657c33.034,-71.465 26.924,-91.653 16.595,-101.964Z" style="fill:#fff;fill-rule:nonzero;"/><path d="M332.164,336.156c-65.865,41.555 -212.204,172.838 -262.409,262.419c84.414,-47.316 217.771,-191.671 262.409,-262.419Z" style="fill:#fff;fill-rule:nonzero;"/></g></g></svg>