<?xml version="1.0" encoding="UTF-8" standalone="no"?><!DOCTYPE svg PUBLIC "-//W3C//DTD SVG 1.1//EN" "http://www.w3.org/Graphics/SVG/1.1/DTD/svg11.dtd"><svg width="100%" height="100%" viewBox="0 0 2737 861" version="1.1" xmlns="http://www.w3.org/2000/svg" xmlns:xlink="http://www.w3.org/1999/xlink" xml:space="preserve" xmlns:serif="http://www.serif.com/" style="fill-rule:evenodd;clip-rule:evenodd;stroke-linejoin:round;stroke-miterlimit:2;"><g><g><path d="M2727.78,61.816c-5.671,-5.671 -13.813,-8.549 -24.212,-8.549c-68.438,-0 -283.33,132.603 -366.613,215.895c-20.425,20.418 -37.183,40.844 -49.842,60.705c-2.516,3.963 -3.141,8.848 -1.687,13.312c1.454,4.464 4.833,8.047 9.204,9.767l13.65,5.376l-36,14.171c-4.713,1.841 -8.233,5.845 -9.483,10.74c-7.021,27.49 -4.442,53.609 7.004,77.25l23.971,-23.966c-3.75,-11.867 -4.517,-24.422 -2.155,-37.834l65.376,-25.73c0.3,-0.111 0.52,-0.337 0.8,-0.46l7.495,-7.496c0.992,-2.068 1.679,-4.29 1.679,-6.675c0,-6.46 -3.954,-12.267 -9.975,-14.632l-32.395,-12.747c9.687,-12.971 21.266,-26.21 34.6,-39.542c81.12,-81.122 290.308,-206.68 344.366,-206.68c0.442,-0 0.842,0.01 1.192,0.031c0.221,5.591 -1.425,23.139 -21.217,66.675l-58.741,44.897c-3.888,2.969 -6.171,7.586 -6.171,12.491c-0,4.895 2.279,9.522 6.171,12.492l15.787,12.072c-45.479,78.378 -101.762,156.397 -142.387,197.025c-55.717,55.717 -104.396,78.009 -144.992,65.284l-24.058,24.058c14.658,7.104 30.191,11.029 46.679,11.029c44.108,0 92.771,-26.296 144.608,-78.133c45.184,-45.185 105.767,-129.828 154.342,-215.639c3.858,-6.838 2.096,-15.482 -4.138,-20.242l-10.391,-7.944l45.508,-34.782c2.029,-1.545 3.658,-3.572 4.721,-5.898c34.446,-74.519 28.075,-95.57 17.304,-106.321Z" style="fill:#144849;fill-rule:nonzero;"/><path d="M2458.54,331.045c-68.68,43.33 -221.271,180.222 -273.621,273.63c88.021,-49.337 227.075,-199.86 273.621,-273.63Z" style="fill:#144849;fill-rule:nonzero;"/></g><path d="M2197.45,594.217c-0,-4.6 -3.734,-8.334 -8.334,-8.334l-346.768,0c-4.599,0 -8.333,3.734 -8.333,8.334l-0,2.131c-0,4.6 3.734,8.334 8.333,8.334l346.768,-0c4.6,-0 8.334,-3.734 8.334,-8.334l-0,-2.131Z" style="fill:#144849;"/><path d="M1689.89,594.217c-0,-4.6 -3.734,-8.334 -8.334,-8.334l-284.107,0c-4.599,0 -8.333,3.734 -8.333,8.334l-0,2.131c-0,4.6 3.734,8.334 8.333,8.334l284.107,-0c4.6,-0 8.334,-3.734 8.334,-8.334l-0,-2.131Z" style="fill:#144849;"/><path d="M981.823,594.217c-0,-4.6 -3.734,-8.334 -8.333,-8.334l-747.8,0c-4.6,0 -8.334,3.734 -8.334,8.334l0,2.131c0,4.6 3.734,8.334 8.334,8.334l747.8,-0c4.599,-0 8.333,-3.734 8.333,-8.334l-0,-2.131Z" style="fill:#144849;"/><path d="M2170.82,486.017c-4.963,9.4 -10.317,18.404 -16.058,27.021c-5.484,8.616 -11.75,16.187 -18.8,22.716c-7.05,6.525 -15.013,11.75 -23.888,15.663c-8.879,3.916 -19.058,5.875 -30.55,5.875c-13.054,-0 -24.279,-3.263 -33.679,-9.788c-9.4,-6.267 -17.492,-14.621 -24.279,-25.066c-6.529,-10.705 -11.879,-22.846 -16.059,-36.421c-3.916,-13.579 -7.179,-27.417 -9.791,-41.513c-2.609,-14.1 -4.567,-27.937 -5.875,-41.514c-1.304,-13.838 -2.479,-26.24 -3.525,-37.205c-4.959,3.916 -10.963,11.488 -18.013,22.715c-7.05,10.965 -14.229,23.889 -21.541,38.771c-7.309,14.883 -14.359,31.071 -21.146,48.562c-6.529,17.492 -11.879,34.725 -16.059,51.696c-0.783,3.654 -2.087,7.442 -3.916,11.359c-1.567,3.916 -3.654,7.441 -6.267,10.575c-2.35,3.391 -5.221,6.133 -8.617,8.22c-3.391,2.35 -7.179,3.525 -11.354,3.525c-6.791,0 -11.75,-2.35 -14.883,-7.05c-2.871,-4.696 -4.963,-10.05 -6.267,-16.054c-7.571,-33.158 -12.925,-64.883 -16.058,-95.167c-2.871,-30.287 -4.308,-60.573 -4.308,-90.86c-0,-7.31 1.175,-13.576 3.525,-18.798c2.612,-5.483 6.008,-9.921 10.183,-13.315c4.179,-3.656 9.137,-6.267 14.883,-7.833c5.742,-1.828 11.75,-2.741 18.017,-2.741l3.521,-0c1.829,-0 3.525,0.261 5.091,0.783c1.567,0.261 2.875,0.783 3.917,1.567c1.046,0.783 1.438,1.827 1.175,3.132c-6.787,34.203 -10.05,69.058 -9.792,104.565c0.263,35.246 2.092,69.188 5.484,101.825c2.875,-13.054 7.05,-27.804 12.533,-44.254c5.746,-16.708 12.271,-33.421 19.583,-50.129c7.571,-16.97 15.663,-33.027 24.28,-48.17c8.879,-15.404 17.883,-28.329 27.025,-38.772c4.437,-4.961 8.875,-9.138 13.312,-12.532c4.7,-3.655 10.446,-5.483 17.233,-5.483c3.917,0 7.18,0.783 9.792,2.35c2.608,1.566 4.7,3.524 6.267,5.874c1.825,2.35 3.133,5.091 3.916,8.224c1.042,2.872 1.825,5.745 2.346,8.616c1.309,7.572 2.613,17.363 3.917,29.373c1.308,12.01 2.875,24.803 4.7,38.38c2.092,13.578 4.571,27.282 7.442,41.119c2.87,13.579 6.529,25.979 10.966,37.209c4.438,10.962 9.792,19.97 16.059,27.02c6.262,7.05 13.704,10.575 22.32,10.575c7.05,0 13.838,-1.304 20.367,-3.916c6.788,-2.871 13.183,-6.396 19.188,-10.575c6.004,-4.438 11.62,-9.4 16.841,-14.879c5.221,-5.746 9.921,-11.359 14.1,-16.842l2.742,1.567Z" style="fill:#144849;fill-rule:nonzero;"/><path d="M1794.85,662.25c0,21.15 -2.479,42.688 -7.438,64.621c-4.962,22.192 -12.795,42.558 -23.499,61.091c-10.705,18.538 -24.542,34.205 -41.513,47c-16.708,12.792 -36.946,20.755 -60.704,23.888c-2.35,0.521 -4.567,0.913 -6.659,1.175c-2.087,0.263 -4.437,0.392 -7.045,0.392c-14.363,-0 -27.938,-2.871 -40.734,-8.617c-12.791,-5.742 -24.016,-13.575 -33.679,-23.496c-9.4,-9.662 -16.841,-21.021 -22.321,-34.075c-5.483,-12.792 -8.225,-26.237 -8.225,-40.337c0,-15.663 3.263,-30.675 9.792,-45.038c6.263,-14.358 14.621,-27.675 25.063,-39.946c10.441,-12.008 22.191,-22.716 35.245,-32.112c13.317,-9.138 26.892,-16.45 40.73,-21.933l2.35,5.091c-25.325,13.575 -44.905,32.246 -58.742,56.004c-13.838,23.759 -20.758,49.996 -20.758,78.717c-0,11.75 1.566,23.108 4.7,34.071c3.395,11.229 8.354,21.021 14.883,29.375c6.525,8.354 14.621,15.012 24.279,19.971c9.921,5.225 21.279,7.833 34.071,7.833c18.017,0 33.029,-4.7 45.037,-14.096c12.013,-9.4 21.542,-21.15 28.592,-35.25c7.308,-14.096 12.4,-29.5 15.275,-46.212c3.129,-16.446 4.696,-31.85 4.696,-46.213c-0,-12.529 -0.783,-24.804 -2.346,-36.812c-1.567,-12.009 -3.267,-24.021 -5.092,-36.03c-1.566,-11.75 -3.133,-23.629 -4.7,-35.637c-1.566,-12.013 -2.35,-24.283 -2.35,-36.817c0,-8.875 0.259,-18.012 0.784,-27.412c0.783,-9.4 2.087,-18.929 3.916,-28.592c-11.487,13.579 -24.804,25.196 -39.946,34.858c-14.883,9.4 -30.941,14.096 -48.17,14.096c-10.709,0 -20.367,-2.087 -28.984,-6.262c-8.354,-3.917 -15.533,-9.271 -21.537,-16.059c-5.746,-6.787 -10.184,-14.75 -13.317,-23.891c-2.871,-9.396 -4.308,-19.188 -4.308,-29.371c-0,-11.75 1.829,-23.888 5.483,-36.421c3.917,-12.796 9.138,-25.065 15.663,-36.814c6.791,-12.01 14.754,-23.237 23.891,-33.68c9.138,-10.705 19.059,-19.974 29.763,-27.807c10.966,-8.093 22.454,-14.359 34.467,-18.798c12.008,-4.7 24.279,-7.049 36.812,-7.049c6.267,-0 12.533,0.914 18.796,2.741c6.529,1.567 12.404,4.047 17.625,7.441c5.483,3.394 9.792,7.702 12.925,12.924c3.391,5.222 5.091,11.488 5.091,18.798c0.001,5.222 -1.174,9.922 -3.524,14.099c-2.351,4.178 -5.355,7.963 -9.009,11.358c-3.654,3.133 -7.7,6.005 -12.142,8.615c-4.437,2.611 -8.745,4.83 -12.92,6.658l-1.567,-4.699c2.088,-2.35 3.521,-5.222 4.304,-8.616c0.784,-3.395 1.175,-6.658 1.175,-9.791c0,-4.7 -0.783,-9.399 -2.35,-14.099c-1.304,-4.96 -3.391,-9.399 -6.262,-13.315c-2.613,-4.178 -6.009,-7.572 -10.184,-10.183c-4.179,-2.611 -8.879,-3.916 -14.1,-3.916c-13.316,-0 -25.325,3.655 -36.029,10.966c-10.704,7.049 -19.841,16.056 -27.417,27.022c-7.308,10.966 -13.054,22.976 -17.229,36.031c-3.916,12.793 -5.875,24.935 -5.875,36.422c0,7.571 0.654,15.271 1.959,23.105c1.566,7.833 4.045,14.883 7.441,21.15c3.392,6.266 7.963,11.487 13.704,15.662c6.009,3.917 13.58,5.875 22.717,5.875c14.1,0 27.154,-3.654 39.163,-10.962c12.012,-7.575 22.716,-16.45 32.112,-26.634c3.658,-10.441 8.358,-20.233 14.1,-29.371c6.004,-9.4 13.317,-17.495 21.933,-24.283l6.659,4.7c-6.009,9.663 -9.925,20.625 -11.75,32.896c-1.829,12.275 -2.742,24.283 -2.742,36.033c0,13.838 1.046,27.675 3.133,41.513c2.088,13.837 4.309,27.804 6.659,41.904c2.608,14.1 4.958,28.329 7.05,42.687c2.087,14.359 3.129,28.98 3.129,43.863Z" style="fill:#144849;fill-rule:nonzero;"/><path d="M1496.04,225.972c0,5.222 -1.174,10.443 -3.524,15.665c-2.351,5.222 -5.484,9.922 -9.4,14.099c-3.655,3.917 -7.963,7.18 -12.925,9.791c-4.959,2.611 -10.051,3.916 -15.271,3.916c-6.792,0 -12.271,-2.219 -16.45,-6.658c-3.917,-4.438 -5.875,-10.052 -5.875,-16.84c-0,-5.222 1.175,-10.313 3.525,-15.273c2.35,-5.222 5.354,-9.791 9.008,-13.707c3.917,-3.917 8.225,-7.05 12.925,-9.4c4.958,-2.611 10.05,-3.916 15.271,-3.916c6.787,-0 12.271,2.089 16.45,6.266c4.175,4.178 6.266,9.53 6.266,16.057Zm109.655,260.045c-6.005,9.921 -13.184,19.058 -21.538,27.412c-8.096,8.096 -17.1,15.275 -27.025,21.542c-9.658,6.004 -20.1,10.704 -31.329,14.1c-10.967,3.392 -22.321,5.087 -34.071,5.087c-14.621,0 -27.675,-2.479 -39.162,-7.437c-11.23,-4.963 -20.759,-11.75 -28.592,-20.367c-7.571,-8.875 -13.446,-19.192 -17.621,-30.937c-3.917,-12.013 -5.875,-25.067 -5.875,-39.167c0,-15.142 2.217,-29.5 6.659,-43.077c4.437,-13.577 10.57,-26.24 18.404,-37.989c7.833,-12.01 16.97,-22.976 27.416,-32.897c10.705,-9.922 22.063,-18.799 34.071,-26.631l4.7,3.524c-12.796,15.144 -23.237,32.114 -31.333,50.913c-7.829,18.798 -11.746,38.38 -11.746,58.745c0,11.75 1.304,23.108 3.917,34.07c2.871,10.705 7.179,20.238 12.921,28.592c6.008,8.354 13.579,15.013 22.716,19.971c9.138,4.962 20.234,7.442 33.288,7.442c15.404,-0 30.025,-3.263 43.862,-9.792c14.1,-6.525 26.763,-14.75 37.988,-24.671l2.35,1.567Z" style="fill:#144849;fill-rule:nonzero;"/><path d="M1400.48,112.007c0,21.409 -5.354,41.383 -16.058,59.92c-10.442,18.537 -24.15,34.594 -41.121,48.171c-16.708,13.576 -35.379,24.281 -56.004,32.113c-20.625,7.572 -40.992,11.096 -61.096,10.574l-6.267,0l0,-7.049c17.234,-3.655 33.421,-9.921 48.563,-18.798c15.404,-9.138 28.721,-20.235 39.95,-33.289c11.487,-13.054 20.496,-27.675 27.021,-43.863c6.787,-16.187 10.183,-33.158 10.183,-50.912c0,-11.749 -1.438,-22.845 -4.308,-33.289c-2.871,-10.443 -7.313,-19.451 -13.317,-27.022c-6.004,-7.572 -13.708,-13.577 -23.104,-18.016c-9.138,-4.438 -20.104,-6.657 -32.9,-6.657c-18.275,-0 -36.813,2.741 -55.608,8.224c-18.8,5.483 -36.946,13.185 -54.438,23.106c-17.496,9.922 -33.942,21.67 -49.346,35.247c-15.146,13.577 -28.458,28.459 -39.946,44.646c-11.229,16.188 -20.104,33.42 -26.633,51.696c-6.525,18.276 -9.792,36.944 -9.792,56.003c0,20.365 2.875,37.988 8.617,52.871c6.004,14.62 13.971,27.545 23.892,38.771c10.179,10.966 21.929,20.365 35.246,28.198c13.316,7.833 27.545,15.012 42.687,21.54c15.142,6.266 30.546,12.14 46.212,17.623c15.926,5.483 31.463,11.358 46.605,17.623c15.141,6.266 29.37,13.316 42.687,21.15c13.317,7.57 24.934,16.708 34.854,27.412c10.184,10.446 18.146,22.975 23.892,37.596c6.004,14.362 9.008,31.333 9.008,50.912c0,21.413 -4.437,40.471 -13.316,57.18c-8.617,16.708 -20.104,30.679 -34.463,41.904c-14.362,11.487 -30.808,20.104 -49.346,25.85c-18.537,6.004 -37.596,9.008 -57.179,9.008c-21.15,0 -40.729,-3.658 -58.746,-10.967c-18.012,-7.05 -34.2,-16.712 -48.562,-28.983c-14.358,-12.008 -26.892,-25.975 -37.596,-41.904c-10.704,-15.663 -19.321,-31.983 -25.846,-48.954l5.871,-3.134c7.833,13.838 16.842,27.417 27.025,40.734c10.183,13.575 21.671,25.583 34.462,36.029c12.796,10.704 26.892,19.321 42.296,25.846c15.667,6.529 32.638,9.791 50.913,9.791c14.883,0 28.721,-2.087 41.512,-6.266c12.796,-4.175 23.892,-10.184 33.292,-18.013c9.396,-7.833 16.708,-17.496 21.929,-28.983c5.484,-11.488 8.225,-24.542 8.225,-39.163c0,-21.408 -4.571,-39.033 -13.708,-52.871c-9.138,-13.837 -21.146,-25.587 -36.029,-35.245c-14.884,-9.663 -31.854,-17.888 -50.913,-24.675c-19.058,-6.788 -38.641,-13.575 -58.746,-20.363c-19.841,-7.05 -39.291,-14.883 -58.35,-23.5c-19.062,-8.876 -36.033,-19.972 -50.912,-33.288c-14.883,-13.315 -26.892,-29.764 -36.033,-49.346c-9.138,-19.842 -13.705,-44.123 -13.705,-72.843c0,-26.109 4.046,-50.651 12.138,-73.627c8.096,-23.237 19.192,-44.515 33.292,-63.836c14.358,-19.321 31.2,-36.552 50.52,-51.696c19.321,-15.404 40.075,-28.458 62.267,-39.163c22.454,-10.704 45.821,-18.798 70.104,-24.281c24.279,-5.744 48.692,-8.616 73.234,-8.616c17.495,0 33.941,2.089 49.345,6.266c15.667,4.178 29.113,10.705 40.338,19.582c11.492,8.616 20.496,19.842 27.025,33.68c6.787,13.838 10.183,30.286 10.183,49.346Z" style="fill:#144849;fill-rule:nonzero;"/><path d="M891.354,131.197c1.567,-3.655 2.875,-7.441 3.917,-11.357c1.308,-4.178 1.958,-8.094 1.958,-11.75c0.263,-3.916 -0.258,-7.31 -1.567,-10.182c-1.304,-3.133 -3.654,-5.613 -7.049,-7.441c-6.788,-3.655 -12.663,-8.224 -17.621,-13.707c-4.7,-5.744 -7.05,-12.663 -7.05,-20.757c-0,-4.96 0.912,-9.66 2.741,-14.098c1.83,-4.439 4.309,-8.225 7.442,-11.358c3.392,-3.394 7.308,-6.005 11.746,-7.832c4.442,-1.828 9.141,-2.742 14.1,-2.742c9.921,0 18.275,3.525 25.066,10.574c6.788,7.05 10.442,15.535 10.963,25.456c0.783,10.444 -0.65,20.235 -4.304,29.373c-3.396,8.877 -7.575,16.709 -12.534,23.498c-4.7,6.788 -9.4,12.401 -14.1,16.84c-4.7,4.177 -7.962,6.919 -9.791,8.224c-0.784,-0.261 -1.434,-0.653 -1.958,-1.175c-1.305,-0.783 -1.959,-1.305 -1.959,-1.566Z" style="fill:#144849;fill-rule:nonzero;"/><path d="M891.354,486.017c-6.787,11.225 -15.662,21.279 -26.629,30.154c-10.704,8.616 -22.583,16.058 -35.637,22.325c-12.796,6.004 -26.242,10.575 -40.338,13.704c-13.842,3.396 -27.154,5.092 -39.95,5.092c-15.662,-0 -30.283,-2.35 -43.862,-7.05c-13.313,-4.696 -25.063,-11.488 -35.246,-20.363c-9.921,-9.137 -17.754,-19.975 -23.5,-32.504c-5.48,-12.796 -8.221,-27.283 -8.221,-43.471c-0,-18.279 3.262,-36.162 9.787,-53.656c6.792,-17.493 16.059,-33.027 27.809,-46.604c12.008,-13.577 26.108,-24.412 42.296,-32.505c16.45,-8.355 34.204,-12.532 53.262,-12.532c6.267,-0 12.533,0.652 18.796,1.958c6.267,1.305 12.012,3.524 17.233,6.657c5.221,2.872 9.4,6.789 12.534,11.749c3.391,4.961 5.091,11.227 5.091,18.799c0,7.571 -1.958,14.229 -5.875,19.973c-3.916,5.483 -8.879,10.052 -14.883,13.707c-6.004,3.655 -12.533,6.658 -19.579,9.007c-6.792,2.089 -13.317,3.656 -19.584,4.7l0,-5.482c3.655,-1.045 7.571,-2.481 11.75,-4.309c4.438,-1.827 8.484,-4.177 12.142,-7.049c3.654,-2.872 6.654,-6.266 9.004,-10.182c2.613,-3.917 3.917,-8.225 3.917,-12.924c-0,-3.656 -0.913,-6.658 -2.742,-9.008c-1.567,-2.611 -3.654,-4.699 -6.267,-6.266c-2.35,-1.567 -5.087,-2.741 -8.22,-3.525c-3.134,-0.783 -6.267,-1.175 -9.4,-1.175c-13.317,0 -25.325,3.003 -36.03,9.008c-10.445,5.744 -19.32,13.446 -26.633,23.106c-7.308,9.661 -12.925,20.496 -16.842,32.506c-3.654,12.01 -5.479,24.151 -5.479,36.422c0,14.1 2.088,26.763 6.263,37.988c4.441,10.966 10.575,20.366 18.408,28.195c7.833,7.834 17.363,13.842 28.588,18.017c11.229,4.179 23.762,6.267 37.6,6.267c8.875,-0 18.275,-0.913 28.195,-2.742c10.184,-2.087 19.975,-4.962 29.371,-8.617c9.663,-3.654 18.8,-8.091 27.417,-13.312c8.617,-5.225 16.058,-11.1 22.321,-17.625l3.133,1.567Z" style="fill:#144849;fill-rule:nonzero;"/><path d="M553.767,225.972c-0,5.222 -1.175,10.443 -3.525,15.665c-2.346,5.222 -5.48,9.922 -9.396,14.099c-3.659,3.917 -7.963,7.18 -12.925,9.791c-4.963,2.611 -10.054,3.916 -15.275,3.916c-6.788,0 -12.271,-2.219 -16.446,-6.658c-3.917,-4.438 -5.875,-10.052 -5.875,-16.84c-0,-5.222 1.175,-10.313 3.525,-15.273c2.35,-5.222 5.35,-9.791 9.004,-13.707c3.917,-3.917 8.225,-7.05 12.925,-9.4c4.963,-2.611 10.054,-3.916 15.275,-3.916c6.788,-0 12.271,2.089 16.45,6.266c4.175,4.178 6.263,9.53 6.263,16.057Zm109.658,260.045c-6.004,9.921 -13.183,19.058 -21.538,27.412c-8.095,8.096 -17.104,15.275 -27.025,21.542c-9.658,6.004 -20.104,10.704 -31.329,14.1c-10.966,3.392 -22.325,5.087 -34.075,5.087c-14.621,0 -27.675,-2.479 -39.162,-7.437c-11.225,-4.963 -20.754,-11.75 -28.588,-20.367c-7.571,-8.875 -13.446,-19.192 -17.625,-30.937c-3.916,-12.013 -5.875,-25.067 -5.875,-39.167c0,-15.142 2.221,-29.5 6.659,-43.077c4.437,-13.577 10.575,-26.24 18.408,-37.989c7.833,-12.01 16.971,-22.976 27.412,-32.897c10.705,-9.922 22.063,-18.799 34.075,-26.631l4.696,3.524c-12.791,15.144 -23.233,32.114 -31.329,50.913c-7.833,18.798 -11.75,38.38 -11.75,58.745c0,11.75 1.308,23.108 3.917,34.07c2.875,10.705 7.179,20.238 12.925,28.592c6.004,8.354 13.575,15.013 22.716,19.971c9.138,4.962 20.234,7.442 33.288,7.442c15.404,-0 30.025,-3.263 43.862,-9.792c14.1,-6.525 26.763,-14.75 37.988,-24.671l2.35,1.567Z" style="fill:#144849;fill-rule:nonzero;"/><path d="M185.242,668.908c0,7.313 -4.047,10.967 -12.14,10.967c-5.222,0 -10.183,-1.046 -14.882,-3.133c-4.7,-1.829 -9.008,-3.917 -12.924,-6.267c-8.094,-4.437 -15.274,-10.967 -21.54,-19.583c-6.005,-8.613 -11.227,-18.538 -15.666,-29.763c-4.177,-11.225 -7.832,-23.496 -10.965,-36.812c-2.872,-13.054 -5.222,-26.371 -7.05,-39.946c-1.827,-13.579 -3.263,-27.025 -4.307,-40.342c-1.045,-13.312 -1.698,-25.716 -1.959,-37.204c-7.571,-2.871 -15.273,-6.133 -23.106,-9.792c-7.571,-3.654 -14.49,-7.7 -20.756,-12.137c-6.005,-4.7 -10.966,-9.663 -14.882,-14.883c-3.917,-5.484 -5.875,-11.225 -5.875,-17.232c0,-4.7 1.044,-8.877 3.133,-12.533c2.35,-3.916 6.136,-5.874 11.357,-5.874c4.439,-0 8.616,1.044 12.533,3.133c3.916,1.828 7.832,4.308 11.749,7.441c3.916,3.133 7.963,6.788 12.14,10.966c4.178,3.915 8.616,7.961 13.316,12.14c-0,-26.631 0.914,-54.828 2.741,-84.592c1.828,-30.025 5.091,-59.92 9.791,-89.684c4.7,-30.025 10.966,-59.267 18.798,-87.726c8.094,-28.458 18.277,-54.698 30.548,-78.718l7.049,2.35c-8.877,45.168 -15.404,90.467 -19.582,135.896c-3.916,45.169 -5.874,90.468 -5.874,135.897c-0,16.71 0.391,33.288 1.175,49.737c1.044,16.186 2.48,32.374 4.308,48.561c7.833,3.133 16.579,5.617 26.239,7.442c9.66,1.829 20.365,2.741 32.114,2.741c19.843,0 38.25,-3 55.22,-9.008c17.232,-6.004 32.898,-14.229 46.996,-24.671c14.36,-10.704 27.023,-23.237 37.989,-37.597c10.965,-14.36 20.234,-29.764 27.805,-46.213c7.572,-16.709 13.316,-33.941 17.232,-51.695c3.917,-18.015 5.875,-36.03 5.875,-54.046c-0,-17.753 -1.958,-35.768 -5.875,-54.045c-3.916,-18.537 -9.791,-36.422 -17.623,-53.653c-7.572,-17.493 -16.971,-33.811 -28.198,-48.955c-10.966,-15.142 -23.629,-28.327 -37.988,-39.555c-14.36,-11.487 -30.286,-20.495 -47.779,-27.022c-17.232,-6.788 -35.9,-10.182 -56.004,-10.182c-16.448,-0 -33.419,3.002 -50.912,9.007c-17.493,6.005 -33.419,14.49 -47.779,25.456c-14.099,10.705 -25.848,23.629 -35.247,38.772c-9.138,15.143 -13.707,31.722 -13.707,49.737c-0,7.05 0.783,13.446 2.35,19.19c1.827,5.483 3.655,10.574 5.482,15.274c2.089,4.699 3.917,9.138 5.483,13.316c1.828,3.916 2.742,7.962 2.742,12.14c-0,7.572 -2.611,13.968 -7.833,19.19c-4.961,4.961 -11.096,7.441 -18.407,7.441c-6.788,-0 -12.14,-1.828 -16.057,-5.483c-3.916,-3.655 -7.049,-8.224 -9.399,-13.707c-2.088,-5.483 -3.524,-11.227 -4.308,-17.232c-0.522,-6.266 -0.783,-11.749 -0.783,-16.449c-0,-22.975 5.352,-43.732 16.057,-62.269c10.966,-18.799 25.195,-35.508 42.688,-50.129c10.965,-9.399 21.931,-17.623 32.897,-24.673c11.227,-7.31 22.715,-13.315 34.464,-18.015c11.749,-4.961 24.02,-8.616 36.813,-10.966c13.055,-2.611 26.892,-3.916 41.513,-3.916c33.942,0 65.272,5.875 93.992,17.623c28.72,11.488 53.393,27.676 74.018,48.563c20.888,20.626 37.075,45.299 48.562,74.019c11.75,28.458 17.625,59.789 17.625,93.991c0,35.247 -6.267,68.275 -18.8,99.083c-12.27,30.548 -29.502,57.309 -51.694,80.285c-21.932,22.715 -48.041,40.599 -78.327,53.653c-30.286,13.054 -63.314,19.583 -99.083,19.583c-9.138,0 -18.407,-0.525 -27.806,-1.567c-9.399,-1.045 -18.668,-2.35 -27.806,-3.916c8.616,59.004 24.282,117.229 46.996,174.666c0.783,2.092 1.436,4.18 1.958,6.267c0.783,2.35 1.175,4.571 1.175,6.658Z" style="fill:#144849;fill-rule:nonzero;"/></g></svg>