<svg width="182" height="182" viewBox="0 0 182 182" fill="none" xmlns="http://www.w3.org/2000/svg">
<g clip-path="url(#clip0_37_7)">
<path d="M45.5 22.75C45.5 10.202 55.702 0 68.25 0H125.125V45.5C125.125 51.7918 130.208 56.875 136.5 56.875H182V159.25C182 171.798 171.798 182 159.25 182H68.25C55.702 182 45.5 171.798 45.5 159.25V119.438H107.387L93.5238 133.301C90.1824 136.642 90.1824 142.045 93.5238 145.351C96.8652 148.657 102.268 148.693 105.574 145.351L134.012 116.914C137.353 113.572 137.353 108.169 134.012 104.863L105.574 76.4258C102.233 73.0844 96.8297 73.0844 93.5238 76.4258C90.218 79.7672 90.1824 85.1703 93.5238 88.4762L107.387 102.339L45.5 102.375V22.75ZM45.5 102.375V119.438H8.53125C3.80352 119.438 0 115.634 0 110.906C0 106.179 3.80352 102.375 8.53125 102.375H45.5ZM182 45.5H136.5V0L182 45.5Z" fill="#CECECE"/>
</g>
<defs>
<clipPath id="clip0_37_7">
<rect width="182" height="182" fill="white"/>
</clipPath>
</defs>
</svg>
